<?xml version="1.0" encoding="utf-8"?>
<svg xmlns="http://www.w3.org/2000/svg" xmlns:xlink="http://www.w3.org/1999/xlink" width="600" height="400" viewBox="0 0 600 400">
<defs>
  <clipPath id="clip00">
    <rect x="0" y="0" width="600" height="400"/>
  </clipPath>
</defs>
<polygon clip-path="url(#clip00)" points="
0,400 600,400 600,0 0,0 
  " fill="#ffffff" fill-opacity="1"/>
<defs>
  <clipPath id="clip01">
    <rect x="120" y="0" width="421" height="400"/>
  </clipPath>
</defs>
<polygon clip-path="url(#clip00)" points="
50.7108,361.8 596.063,361.8 596.063,3.93701 50.7108,3.93701 
  " fill="#ffffff" fill-opacity="1"/>
<defs>
  <clipPath id="clip02">
    <rect x="50" y="3" width="546" height="358"/>
  </clipPath>
</defs>
<polyline clip-path="url(#clip02)" style="stroke:#00002d; stroke-width:0.8; stroke-opacity:0.5; fill:none" stroke-dasharray="1, 2" points="
  96.1569,356.432 96.1569,9.30495 
  "/>
<polyline clip-path="url(#clip02)" style="stroke:#00002d; stroke-width:0.8; stroke-opacity:0.5; fill:none" stroke-dasharray="1, 2" points="
  247.644,356.432 247.644,9.30495 
  "/>
<polyline clip-path="url(#clip02)" style="stroke:#00002d; stroke-width:0.8; stroke-opacity:0.5; fill:none" stroke-dasharray="1, 2" points="
  399.13,356.432 399.13,9.30495 
  "/>
<polyline clip-path="url(#clip02)" style="stroke:#00002d; stroke-width:0.8; stroke-opacity:0.5; fill:none" stroke-dasharray="1, 2" points="
  550.617,356.432 550.617,9.30495 
  "/>
<polyline clip-path="url(#clip02)" style="stroke:#00002d; stroke-width:0.8; stroke-opacity:0.5; fill:none" stroke-dasharray="1, 2" points="
  58.8911,310.677 587.883,310.677 
  "/>
<polyline clip-path="url(#clip02)" style="stroke:#00002d; stroke-width:0.8; stroke-opacity:0.5; fill:none" stroke-dasharray="1, 2" points="
  58.8911,208.43 587.883,208.43 
  "/>
<polyline clip-path="url(#clip02)" style="stroke:#00002d; stroke-width:0.8; stroke-opacity:0.5; fill:none" stroke-dasharray="1, 2" points="
  58.8911,106.184 587.883,106.184 
  "/>
<polyline clip-path="url(#clip02)" style="stroke:#00002d; stroke-width:0.8; stroke-opacity:1; fill:none" points="
  50.7108,361.8 596.063,361.8 
  "/>
<polyline clip-path="url(#clip02)" style="stroke:#00002d; stroke-width:0.8; stroke-opacity:1; fill:none" points="
  50.7108,3.93701 596.063,3.93701 
  "/>
<polyline clip-path="url(#clip02)" style="stroke:#00002d; stroke-width:0.8; stroke-opacity:1; fill:none" points="
  96.1569,361.8 96.1569,356.432 
  "/>
<polyline clip-path="url(#clip02)" style="stroke:#00002d; stroke-width:0.8; stroke-opacity:1; fill:none" points="
  96.1569,3.93701 96.1569,9.30495 
  "/>
<polyline clip-path="url(#clip02)" style="stroke:#00002d; stroke-width:0.8; stroke-opacity:1; fill:none" points="
  247.644,361.8 247.644,356.432 
  "/>
<polyline clip-path="url(#clip02)" style="stroke:#00002d; stroke-width:0.8; stroke-opacity:1; fill:none" points="
  247.644,3.93701 247.644,9.30495 
  "/>
<polyline clip-path="url(#clip02)" style="stroke:#00002d; stroke-width:0.8; stroke-opacity:1; fill:none" points="
  399.13,361.8 399.13,356.432 
  "/>
<polyline clip-path="url(#clip02)" style="stroke:#00002d; stroke-width:0.8; stroke-opacity:1; fill:none" points="
  399.13,3.93701 399.13,9.30495 
  "/>
<polyline clip-path="url(#clip02)" style="stroke:#00002d; stroke-width:0.8; stroke-opacity:1; fill:none" points="
  550.617,361.8 550.617,356.432 
  "/>
<polyline clip-path="url(#clip02)" style="stroke:#00002d; stroke-width:0.8; stroke-opacity:1; fill:none" points="
  550.617,3.93701 550.617,9.30495 
  "/>
<polyline clip-path="url(#clip02)" style="stroke:#00002d; stroke-width:0.8; stroke-opacity:1; fill:none" points="
  50.7108,361.8 50.7108,3.93701 
  "/>
<polyline clip-path="url(#clip02)" style="stroke:#00002d; stroke-width:0.8; stroke-opacity:1; fill:none" points="
  596.063,361.8 596.063,3.93701 
  "/>
<polyline clip-path="url(#clip02)" style="stroke:#00002d; stroke-width:0.8; stroke-opacity:1; fill:none" points="
  50.7108,310.677 58.8911,310.677 
  "/>
<polyline clip-path="url(#clip02)" style="stroke:#00002d; stroke-width:0.8; stroke-opacity:1; fill:none" points="
  596.063,310.677 587.883,310.677 
  "/>
<polyline clip-path="url(#clip02)" style="stroke:#00002d; stroke-width:0.8; stroke-opacity:1; fill:none" points="
  50.7108,208.43 58.8911,208.43 
  "/>
<polyline clip-path="url(#clip02)" style="stroke:#00002d; stroke-width:0.8; stroke-opacity:1; fill:none" points="
  596.063,208.43 587.883,208.43 
  "/>
<polyline clip-path="url(#clip02)" style="stroke:#00002d; stroke-width:0.8; stroke-opacity:1; fill:none" points="
  50.7108,106.184 58.8911,106.184 
  "/>
<polyline clip-path="url(#clip02)" style="stroke:#00002d; stroke-width:0.8; stroke-opacity:1; fill:none" points="
  596.063,106.184 587.883,106.184 
  "/>
<g clip-path="url(#clip00)">
<text style="fill:#00002d; fill-opacity:1; font-family:Arial,Helvetica Neue,Helvetica,sans-serif; font-size:12; text-anchor:middle;" transform="rotate(0, 96.1569, 378.6)" x="96.1569" y="378.6">0</text>
</g>
<g clip-path="url(#clip00)">
<text style="fill:#00002d; fill-opacity:1; font-family:Arial,Helvetica Neue,Helvetica,sans-serif; font-size:12; text-anchor:middle;" transform="rotate(0, 247.644, 378.6)" x="247.644" y="378.6">1</text>
</g>
<g clip-path="url(#clip00)">
<text style="fill:#00002d; fill-opacity:1; font-family:Arial,Helvetica Neue,Helvetica,sans-serif; font-size:12; text-anchor:middle;" transform="rotate(0, 399.13, 378.6)" x="399.13" y="378.6">2</text>
</g>
<g clip-path="url(#clip00)">
<text style="fill:#00002d; fill-opacity:1; font-family:Arial,Helvetica Neue,Helvetica,sans-serif; font-size:12; text-anchor:middle;" transform="rotate(0, 550.617, 378.6)" x="550.617" y="378.6">3</text>
</g>
<g clip-path="url(#clip00)">
<text style="fill:#00002d; fill-opacity:1; font-family:Arial,Helvetica Neue,Helvetica,sans-serif; font-size:12; text-anchor:start;" transform="rotate(0, 20.5538, 316.609)" x="20.5538" y="316.609">10</text>
</g>
<g clip-path="url(#clip00)">
<text style="fill:#00002d; fill-opacity:1; font-family:Arial,Helvetica Neue,Helvetica,sans-serif; font-size:10; text-anchor:start;" transform="rotate(0, 33.7331, 309.756)" x="33.7331" y="309.756">-</text>
</g>
<g clip-path="url(#clip00)">
<text style="fill:#00002d; fill-opacity:1; font-family:Arial,Helvetica Neue,Helvetica,sans-serif; font-size:10; text-anchor:start;" transform="rotate(0, 39.3568, 309.756)" x="39.3568" y="309.756">7</text>
</g>
<g clip-path="url(#clip00)">
<text style="fill:#00002d; fill-opacity:1; font-family:Arial,Helvetica Neue,Helvetica,sans-serif; font-size:12; text-anchor:start;" transform="rotate(0, 20.5538, 214.362)" x="20.5538" y="214.362">10</text>
</g>
<g clip-path="url(#clip00)">
<text style="fill:#00002d; fill-opacity:1; font-family:Arial,Helvetica Neue,Helvetica,sans-serif; font-size:10; text-anchor:start;" transform="rotate(0, 33.7331, 207.509)" x="33.7331" y="207.509">-</text>
</g>
<g clip-path="url(#clip00)">
<text style="fill:#00002d; fill-opacity:1; font-family:Arial,Helvetica Neue,Helvetica,sans-serif; font-size:10; text-anchor:start;" transform="rotate(0, 39.3568, 207.509)" x="39.3568" y="207.509">6</text>
</g>
<g clip-path="url(#clip00)">
<text style="fill:#00002d; fill-opacity:1; font-family:Arial,Helvetica Neue,Helvetica,sans-serif; font-size:12; text-anchor:start;" transform="rotate(0, 20.5538, 112.116)" x="20.5538" y="112.116">10</text>
</g>
<g clip-path="url(#clip00)">
<text style="fill:#00002d; fill-opacity:1; font-family:Arial,Helvetica Neue,Helvetica,sans-serif; font-size:10; text-anchor:start;" transform="rotate(0, 33.7331, 105.263)" x="33.7331" y="105.263">-</text>
</g>
<g clip-path="url(#clip00)">
<text style="fill:#00002d; fill-opacity:1; font-family:Arial,Helvetica Neue,Helvetica,sans-serif; font-size:10; text-anchor:start;" transform="rotate(0, 39.3568, 105.263)" x="39.3568" y="105.263">5</text>
</g>
<g clip-path="url(#clip00)">
<text style="fill:#00002d; fill-opacity:1; font-family:Arial,Helvetica Neue,Helvetica,sans-serif; font-size:16; text-anchor:middle;" transform="rotate(0, 323.387, 397.6)" x="323.387" y="397.6">Vg(V)</text>
</g>
<g clip-path="url(#clip00)">
<text style="fill:#00002d; fill-opacity:1; font-family:Arial,Helvetica Neue,Helvetica,sans-serif; font-size:16; text-anchor:middle;" transform="rotate(-90, 14.4, 182.869)" x="14.4" y="182.869">Derivative(Id)</text>
</g>
<polyline clip-path="url(#clip02)" style="stroke:#00beff; stroke-width:2.4; stroke-opacity:1; fill:none" points="
  96.1769,267.847 118.892,267.847 141.62,249.408 164.35,232.911 187.076,216.886 209.792,198.816 232.519,179.121 255.248,158.286 277.971,136.984 300.709,117.917 
  323.417,101.899 346.14,88.8768 368.878,79.4341 391.601,74.4116 414.309,72.0554 437.047,71.1196 459.77,71.8705 482.493,74.2573 505.216,79.1149 527.939,86.9142 
  550.662,86.9142 
  "/>
</svg>
