<?xml version="1.0" encoding="utf-8"?>
<svg xmlns="http://www.w3.org/2000/svg" xmlns:xlink="http://www.w3.org/1999/xlink" width="600" height="300" viewBox="0 0 600 300">
<defs>
  <clipPath id="clip00">
    <rect x="0" y="0" width="600" height="300"/>
  </clipPath>
</defs>
<polygon clip-path="url(#clip00)" points="
0,300 600,300 600,0 0,0 
  " fill="#ffffff" fill-opacity="1"/>
<defs>
  <clipPath id="clip01">
    <rect x="120" y="0" width="421" height="300"/>
  </clipPath>
</defs>
<polygon clip-path="url(#clip00)" points="
50.7108,261.8 596.063,261.8 596.063,3.93701 50.7108,3.93701 
  " fill="#ffffff" fill-opacity="1"/>
<defs>
  <clipPath id="clip02">
    <rect x="50" y="3" width="546" height="258"/>
  </clipPath>
</defs>
<polyline clip-path="url(#clip02)" style="stroke:#00002d; stroke-width:0.6; stroke-opacity:0.5; fill:none" stroke-dasharray="1, 2" points="
  96.1569,257.932 96.1569,7.80495 
  "/>
<polyline clip-path="url(#clip02)" style="stroke:#00002d; stroke-width:0.6; stroke-opacity:0.5; fill:none" stroke-dasharray="1, 2" points="
  247.644,257.932 247.644,7.80495 
  "/>
<polyline clip-path="url(#clip02)" style="stroke:#00002d; stroke-width:0.6; stroke-opacity:0.5; fill:none" stroke-dasharray="1, 2" points="
  399.13,257.932 399.13,7.80495 
  "/>
<polyline clip-path="url(#clip02)" style="stroke:#00002d; stroke-width:0.6; stroke-opacity:0.5; fill:none" stroke-dasharray="1, 2" points="
  550.617,257.932 550.617,7.80495 
  "/>
<polyline clip-path="url(#clip02)" style="stroke:#00002d; stroke-width:0.6; stroke-opacity:0.5; fill:none" stroke-dasharray="1, 2" points="
  58.8911,224.963 587.883,224.963 
  "/>
<polyline clip-path="url(#clip02)" style="stroke:#00002d; stroke-width:0.6; stroke-opacity:0.5; fill:none" stroke-dasharray="1, 2" points="
  58.8911,151.287 587.883,151.287 
  "/>
<polyline clip-path="url(#clip02)" style="stroke:#00002d; stroke-width:0.6; stroke-opacity:0.5; fill:none" stroke-dasharray="1, 2" points="
  58.8911,77.6122 587.883,77.6122 
  "/>
<polyline clip-path="url(#clip02)" style="stroke:#00002d; stroke-width:0.6; stroke-opacity:1; fill:none" points="
  50.7108,261.8 596.063,261.8 
  "/>
<polyline clip-path="url(#clip02)" style="stroke:#00002d; stroke-width:0.6; stroke-opacity:1; fill:none" points="
  50.7108,3.93701 596.063,3.93701 
  "/>
<polyline clip-path="url(#clip02)" style="stroke:#00002d; stroke-width:0.6; stroke-opacity:1; fill:none" points="
  96.1569,261.8 96.1569,257.932 
  "/>
<polyline clip-path="url(#clip02)" style="stroke:#00002d; stroke-width:0.6; stroke-opacity:1; fill:none" points="
  96.1569,3.93701 96.1569,7.80495 
  "/>
<polyline clip-path="url(#clip02)" style="stroke:#00002d; stroke-width:0.6; stroke-opacity:1; fill:none" points="
  247.644,261.8 247.644,257.932 
  "/>
<polyline clip-path="url(#clip02)" style="stroke:#00002d; stroke-width:0.6; stroke-opacity:1; fill:none" points="
  247.644,3.93701 247.644,7.80495 
  "/>
<polyline clip-path="url(#clip02)" style="stroke:#00002d; stroke-width:0.6; stroke-opacity:1; fill:none" points="
  399.13,261.8 399.13,257.932 
  "/>
<polyline clip-path="url(#clip02)" style="stroke:#00002d; stroke-width:0.6; stroke-opacity:1; fill:none" points="
  399.13,3.93701 399.13,7.80495 
  "/>
<polyline clip-path="url(#clip02)" style="stroke:#00002d; stroke-width:0.6; stroke-opacity:1; fill:none" points="
  550.617,261.8 550.617,257.932 
  "/>
<polyline clip-path="url(#clip02)" style="stroke:#00002d; stroke-width:0.6; stroke-opacity:1; fill:none" points="
  550.617,3.93701 550.617,7.80495 
  "/>
<polyline clip-path="url(#clip02)" style="stroke:#00002d; stroke-width:0.6; stroke-opacity:1; fill:none" points="
  50.7108,261.8 50.7108,3.93701 
  "/>
<polyline clip-path="url(#clip02)" style="stroke:#00002d; stroke-width:0.6; stroke-opacity:1; fill:none" points="
  596.063,261.8 596.063,3.93701 
  "/>
<polyline clip-path="url(#clip02)" style="stroke:#00002d; stroke-width:0.6; stroke-opacity:1; fill:none" points="
  50.7108,224.963 58.8911,224.963 
  "/>
<polyline clip-path="url(#clip02)" style="stroke:#00002d; stroke-width:0.6; stroke-opacity:1; fill:none" points="
  596.063,224.963 587.883,224.963 
  "/>
<polyline clip-path="url(#clip02)" style="stroke:#00002d; stroke-width:0.6; stroke-opacity:1; fill:none" points="
  50.7108,151.287 58.8911,151.287 
  "/>
<polyline clip-path="url(#clip02)" style="stroke:#00002d; stroke-width:0.6; stroke-opacity:1; fill:none" points="
  596.063,151.287 587.883,151.287 
  "/>
<polyline clip-path="url(#clip02)" style="stroke:#00002d; stroke-width:0.6; stroke-opacity:1; fill:none" points="
  50.7108,77.6122 58.8911,77.6122 
  "/>
<polyline clip-path="url(#clip02)" style="stroke:#00002d; stroke-width:0.6; stroke-opacity:1; fill:none" points="
  596.063,77.6122 587.883,77.6122 
  "/>
<g clip-path="url(#clip00)">
<text style="fill:#00002d; fill-opacity:1; font-family:Arial,Helvetica Neue,Helvetica,sans-serif; font-size:12; text-anchor:middle;" transform="rotate(0, 96.1569, 278.6)" x="96.1569" y="278.6">0</text>
</g>
<g clip-path="url(#clip00)">
<text style="fill:#00002d; fill-opacity:1; font-family:Arial,Helvetica Neue,Helvetica,sans-serif; font-size:12; text-anchor:middle;" transform="rotate(0, 247.644, 278.6)" x="247.644" y="278.6">1</text>
</g>
<g clip-path="url(#clip00)">
<text style="fill:#00002d; fill-opacity:1; font-family:Arial,Helvetica Neue,Helvetica,sans-serif; font-size:12; text-anchor:middle;" transform="rotate(0, 399.13, 278.6)" x="399.13" y="278.6">2</text>
</g>
<g clip-path="url(#clip00)">
<text style="fill:#00002d; fill-opacity:1; font-family:Arial,Helvetica Neue,Helvetica,sans-serif; font-size:12; text-anchor:middle;" transform="rotate(0, 550.617, 278.6)" x="550.617" y="278.6">3</text>
</g>
<g clip-path="url(#clip00)">
<text style="fill:#00002d; fill-opacity:1; font-family:Arial,Helvetica Neue,Helvetica,sans-serif; font-size:12; text-anchor:start;" transform="rotate(0, 20.5538, 230.894)" x="20.5538" y="230.894">10</text>
</g>
<g clip-path="url(#clip00)">
<text style="fill:#00002d; fill-opacity:1; font-family:Arial,Helvetica Neue,Helvetica,sans-serif; font-size:10; text-anchor:start;" transform="rotate(0, 33.7331, 224.042)" x="33.7331" y="224.042">-</text>
</g>
<g clip-path="url(#clip00)">
<text style="fill:#00002d; fill-opacity:1; font-family:Arial,Helvetica Neue,Helvetica,sans-serif; font-size:10; text-anchor:start;" transform="rotate(0, 39.3568, 224.042)" x="39.3568" y="224.042">7</text>
</g>
<g clip-path="url(#clip00)">
<text style="fill:#00002d; fill-opacity:1; font-family:Arial,Helvetica Neue,Helvetica,sans-serif; font-size:12; text-anchor:start;" transform="rotate(0, 20.5538, 157.219)" x="20.5538" y="157.219">10</text>
</g>
<g clip-path="url(#clip00)">
<text style="fill:#00002d; fill-opacity:1; font-family:Arial,Helvetica Neue,Helvetica,sans-serif; font-size:10; text-anchor:start;" transform="rotate(0, 33.7331, 150.367)" x="33.7331" y="150.367">-</text>
</g>
<g clip-path="url(#clip00)">
<text style="fill:#00002d; fill-opacity:1; font-family:Arial,Helvetica Neue,Helvetica,sans-serif; font-size:10; text-anchor:start;" transform="rotate(0, 39.3568, 150.367)" x="39.3568" y="150.367">6</text>
</g>
<g clip-path="url(#clip00)">
<text style="fill:#00002d; fill-opacity:1; font-family:Arial,Helvetica Neue,Helvetica,sans-serif; font-size:12; text-anchor:start;" transform="rotate(0, 20.5538, 83.5441)" x="20.5538" y="83.5441">10</text>
</g>
<g clip-path="url(#clip00)">
<text style="fill:#00002d; fill-opacity:1; font-family:Arial,Helvetica Neue,Helvetica,sans-serif; font-size:10; text-anchor:start;" transform="rotate(0, 33.7331, 76.6915)" x="33.7331" y="76.6915">-</text>
</g>
<g clip-path="url(#clip00)">
<text style="fill:#00002d; fill-opacity:1; font-family:Arial,Helvetica Neue,Helvetica,sans-serif; font-size:10; text-anchor:start;" transform="rotate(0, 39.3568, 76.6915)" x="39.3568" y="76.6915">5</text>
</g>
<g clip-path="url(#clip00)">
<text style="fill:#00002d; fill-opacity:1; font-family:Arial,Helvetica Neue,Helvetica,sans-serif; font-size:16; text-anchor:middle;" transform="rotate(0, 323.387, 297.6)" x="323.387" y="297.6">Vg(V)</text>
</g>
<g clip-path="url(#clip00)">
<text style="fill:#00002d; fill-opacity:1; font-family:Arial,Helvetica Neue,Helvetica,sans-serif; font-size:16; text-anchor:middle;" transform="rotate(-90, 14.4, 132.869)" x="14.4" y="132.869">Id(A)</text>
</g>
<polyline clip-path="url(#clip02)" style="stroke:#008100; stroke-width:1.8; stroke-opacity:1; fill:none" points="
  96.1769,232.717 118.892,222.12 141.62,210.493 164.35,198.516 187.076,186.753 209.792,175.006 232.519,162.582 255.248,149.511 277.971,135.641 300.709,121.249 
  323.417,107.462 346.14,94.714 368.878,83.323 391.601,73.5857 414.309,65.7256 437.047,59.1427 459.77,53.707 482.493,49.192 505.216,45.5177 527.939,42.6452 
  550.662,40.4993 
  "/>
</svg>
